<svg width="142" height="88" viewBox="0 0 142 88" fill="none" xmlns="http://www.w3.org/2000/svg">
<g filter="url(#filter0_d_26_8)">
<mask id="path-1-inside-1_26_8" fill="white">
<path d="M12.874 0C7.9578 0 4 3.9578 4 8.874V70.992C4 75.9082 7.9578 79.866 12.874 79.866H128.236C133.152 79.866 137.11 75.9082 137.11 70.992V8.874C137.11 3.9578 133.152 0 128.236 0H12.874ZM12.874 8.874H26.185C27.0626 8.874 27.9204 9.13423 28.6501 9.62177C29.3797 10.1093 29.9484 10.8023 30.2843 11.613C30.6201 12.4238 30.7079 13.3159 30.5367 14.1766C30.3655 15.0373 29.943 15.8279 29.3224 16.4484C28.7019 17.069 27.9113 17.4915 27.0506 17.6627C26.1899 17.8339 25.2978 17.7461 24.487 17.4103C23.6763 17.0744 22.9833 16.5057 22.4958 15.7761C22.0082 15.0464 21.748 14.1886 21.748 13.311L17.311 17.748C18.1886 17.748 19.0464 18.0082 19.7761 18.4958C20.5057 18.9833 21.0744 19.6763 21.4103 20.487C21.7461 21.2978 21.8339 22.1899 21.6627 23.0506C21.4915 23.9113 21.069 24.7019 20.4484 25.3224C19.8279 25.943 19.0373 26.3655 18.1766 26.5367C17.3159 26.7079 16.4238 26.6201 15.613 26.2843C14.8023 25.9484 14.1093 25.3797 13.6218 24.6501C13.1342 23.9204 12.874 23.0626 12.874 22.185V8.874ZM70.555 8.874C82.8011 8.874 92.74 22.7796 92.74 39.933C92.74 57.0864 82.8011 70.992 70.555 70.992C58.3089 70.992 48.37 57.0864 48.37 39.933C48.37 22.7796 58.3089 8.874 70.555 8.874ZM114.925 8.874H128.236V22.185C128.236 23.0626 127.976 23.9204 127.488 24.6501C127.001 25.3797 126.308 25.9484 125.497 26.2843C124.686 26.6201 123.794 26.7079 122.933 26.5367C122.073 26.3655 121.282 25.943 120.662 25.3224C120.041 24.7019 119.618 23.9113 119.447 23.0506C119.276 22.1899 119.364 21.2978 119.7 20.487C120.036 19.6763 120.604 18.9833 121.334 18.4958C122.064 18.0082 122.921 17.748 123.799 17.748L119.362 13.311C119.362 14.1886 119.102 15.0464 118.614 15.7761C118.127 16.5057 117.434 17.0744 116.623 17.4103C115.812 17.7461 114.92 17.8339 114.059 17.6627C113.199 17.4915 112.408 17.069 111.788 16.4484C111.167 15.8279 110.744 15.0373 110.573 14.1766C110.402 13.3159 110.49 12.4238 110.826 11.613C111.162 10.8023 111.73 10.1093 112.46 9.62177C113.19 9.13423 114.047 8.874 114.925 8.874ZM70.555 22.185C67.6887 22.185 65.8163 23.1523 64.5029 24.4035H76.6071C75.2937 23.1523 73.4213 22.185 70.555 22.185ZM62.7902 26.622C62.3909 27.4295 62.2401 28.1395 62.0803 28.8405H79.0297C78.8699 28.1395 78.728 27.4295 78.3197 26.622H62.7902ZM61.681 31.059V33.2775H79.429V31.059H61.681ZM61.681 35.496V37.7145H79.429V35.496H61.681ZM61.681 39.933V42.1515H79.429V39.933H61.681ZM61.681 44.37L59.4625 46.5885H77.2105L79.429 44.37H61.681ZM57.244 48.807C57.244 48.807 57.5546 49.7121 58.1491 51.0255H78.3197L74.992 48.807H57.244ZM17.311 53.244C18.4878 53.244 19.6163 53.7115 20.4484 54.5436C21.2805 55.3757 21.748 56.5042 21.748 57.681C21.748 58.8578 21.2805 59.9863 20.4484 60.8184C19.6163 61.6505 18.4878 62.118 17.311 62.118L21.748 66.555C21.748 65.6774 22.0082 64.8196 22.4958 64.0899C22.9833 63.3603 23.6763 62.7916 24.487 62.4557C25.2978 62.1199 26.1899 62.032 27.0506 62.2033C27.9113 62.3745 28.7019 62.797 29.3224 63.4176C29.943 64.0381 30.3655 64.8287 30.5367 65.6894C30.7079 66.5501 30.6201 67.4422 30.2843 68.253C29.9484 69.0637 29.3797 69.7567 28.6501 70.2442C27.9204 70.7318 27.0626 70.992 26.185 70.992H12.874V57.681C12.874 56.5042 13.3415 55.3757 14.1736 54.5436C15.0057 53.7115 16.1342 53.244 17.311 53.244ZM59.356 53.244C59.7642 54.0072 60.0304 54.655 60.5717 55.4625H80.698C81.2837 54.2379 81.6475 53.244 81.6475 53.244H59.356ZM123.799 53.244C124.976 53.244 126.104 53.7115 126.936 54.5436C127.769 55.3757 128.236 56.5042 128.236 57.681V70.992H114.925C114.047 70.992 113.19 70.7318 112.46 70.2442C111.73 69.7567 111.162 69.0637 110.826 68.253C110.49 67.4422 110.402 66.5501 110.573 65.6894C110.744 64.8287 111.167 64.0381 111.788 63.4176C112.408 62.797 113.199 62.3745 114.059 62.2033C114.92 62.032 115.812 62.1199 116.623 62.4557C117.434 62.7916 118.127 63.3603 118.614 64.0899C119.102 64.8196 119.362 65.6774 119.362 66.555L123.799 62.118C122.622 62.118 121.494 61.6505 120.662 60.8184C119.829 59.9863 119.362 58.8578 119.362 57.681C119.362 56.5042 119.829 55.3757 120.662 54.5436C121.494 53.7115 122.622 53.244 123.799 53.244ZM62.2667 57.681C62.9648 58.4974 63.7339 59.2369 64.5739 59.8995H77.175C78.0624 59.2162 78.8433 58.4619 79.429 57.681H62.2667Z"/>
</mask>
<path d="M12.874 0C7.9578 0 4 3.9578 4 8.874V70.992C4 75.9082 7.9578 79.866 12.874 79.866H128.236C133.152 79.866 137.11 75.9082 137.11 70.992V8.874C137.11 3.9578 133.152 0 128.236 0H12.874ZM12.874 8.874H26.185C27.0626 8.874 27.9204 9.13423 28.6501 9.62177C29.3797 10.1093 29.9484 10.8023 30.2843 11.613C30.6201 12.4238 30.7079 13.3159 30.5367 14.1766C30.3655 15.0373 29.943 15.8279 29.3224 16.4484C28.7019 17.069 27.9113 17.4915 27.0506 17.6627C26.1899 17.8339 25.2978 17.7461 24.487 17.4103C23.6763 17.0744 22.9833 16.5057 22.4958 15.7761C22.0082 15.0464 21.748 14.1886 21.748 13.311L17.311 17.748C18.1886 17.748 19.0464 18.0082 19.7761 18.4958C20.5057 18.9833 21.0744 19.6763 21.4103 20.487C21.7461 21.2978 21.8339 22.1899 21.6627 23.0506C21.4915 23.9113 21.069 24.7019 20.4484 25.3224C19.8279 25.943 19.0373 26.3655 18.1766 26.5367C17.3159 26.7079 16.4238 26.6201 15.613 26.2843C14.8023 25.9484 14.1093 25.3797 13.6218 24.6501C13.1342 23.9204 12.874 23.0626 12.874 22.185V8.874ZM70.555 8.874C82.8011 8.874 92.74 22.7796 92.74 39.933C92.74 57.0864 82.8011 70.992 70.555 70.992C58.3089 70.992 48.37 57.0864 48.37 39.933C48.37 22.7796 58.3089 8.874 70.555 8.874ZM114.925 8.874H128.236V22.185C128.236 23.0626 127.976 23.9204 127.488 24.6501C127.001 25.3797 126.308 25.9484 125.497 26.2843C124.686 26.6201 123.794 26.7079 122.933 26.5367C122.073 26.3655 121.282 25.943 120.662 25.3224C120.041 24.7019 119.618 23.9113 119.447 23.0506C119.276 22.1899 119.364 21.2978 119.7 20.487C120.036 19.6763 120.604 18.9833 121.334 18.4958C122.064 18.0082 122.921 17.748 123.799 17.748L119.362 13.311C119.362 14.1886 119.102 15.0464 118.614 15.7761C118.127 16.5057 117.434 17.0744 116.623 17.4103C115.812 17.7461 114.92 17.8339 114.059 17.6627C113.199 17.4915 112.408 17.069 111.788 16.4484C111.167 15.8279 110.744 15.0373 110.573 14.1766C110.402 13.3159 110.49 12.4238 110.826 11.613C111.162 10.8023 111.73 10.1093 112.46 9.62177C113.19 9.13423 114.047 8.874 114.925 8.874ZM70.555 22.185C67.6887 22.185 65.8163 23.1523 64.5029 24.4035H76.6071C75.2937 23.1523 73.4213 22.185 70.555 22.185ZM62.7902 26.622C62.3909 27.4295 62.2401 28.1395 62.0803 28.8405H79.0297C78.8699 28.1395 78.728 27.4295 78.3197 26.622H62.7902ZM61.681 31.059V33.2775H79.429V31.059H61.681ZM61.681 35.496V37.7145H79.429V35.496H61.681ZM61.681 39.933V42.1515H79.429V39.933H61.681ZM61.681 44.37L59.4625 46.5885H77.2105L79.429 44.37H61.681ZM57.244 48.807C57.244 48.807 57.5546 49.7121 58.1491 51.0255H78.3197L74.992 48.807H57.244ZM17.311 53.244C18.4878 53.244 19.6163 53.7115 20.4484 54.5436C21.2805 55.3757 21.748 56.5042 21.748 57.681C21.748 58.8578 21.2805 59.9863 20.4484 60.8184C19.6163 61.6505 18.4878 62.118 17.311 62.118L21.748 66.555C21.748 65.6774 22.0082 64.8196 22.4958 64.0899C22.9833 63.3603 23.6763 62.7916 24.487 62.4557C25.2978 62.1199 26.1899 62.032 27.0506 62.2033C27.9113 62.3745 28.7019 62.797 29.3224 63.4176C29.943 64.0381 30.3655 64.8287 30.5367 65.6894C30.7079 66.5501 30.6201 67.4422 30.2843 68.253C29.9484 69.0637 29.3797 69.7567 28.6501 70.2442C27.9204 70.7318 27.0626 70.992 26.185 70.992H12.874V57.681C12.874 56.5042 13.3415 55.3757 14.1736 54.5436C15.0057 53.7115 16.1342 53.244 17.311 53.244ZM59.356 53.244C59.7642 54.0072 60.0304 54.655 60.5717 55.4625H80.698C81.2837 54.2379 81.6475 53.244 81.6475 53.244H59.356ZM123.799 53.244C124.976 53.244 126.104 53.7115 126.936 54.5436C127.769 55.3757 128.236 56.5042 128.236 57.681V70.992H114.925C114.047 70.992 113.19 70.7318 112.46 70.2442C111.73 69.7567 111.162 69.0637 110.826 68.253C110.49 67.4422 110.402 66.5501 110.573 65.6894C110.744 64.8287 111.167 64.0381 111.788 63.4176C112.408 62.797 113.199 62.3745 114.059 62.2033C114.92 62.032 115.812 62.1199 116.623 62.4557C117.434 62.7916 118.127 63.3603 118.614 64.0899C119.102 64.8196 119.362 65.6774 119.362 66.555L123.799 62.118C122.622 62.118 121.494 61.6505 120.662 60.8184C119.829 59.9863 119.362 58.8578 119.362 57.681C119.362 56.5042 119.829 55.3757 120.662 54.5436C121.494 53.7115 122.622 53.244 123.799 53.244ZM62.2667 57.681C62.9648 58.4974 63.7339 59.2369 64.5739 59.8995H77.175C78.0624 59.2162 78.8433 58.4619 79.429 57.681H62.2667Z" fill="black"/>
<path d="M12.874 0C7.9578 0 4 3.9578 4 8.874V70.992C4 75.9082 7.9578 79.866 12.874 79.866H128.236C133.152 79.866 137.11 75.9082 137.11 70.992V8.874C137.11 3.9578 133.152 0 128.236 0H12.874ZM12.874 8.874H26.185C27.0626 8.874 27.9204 9.13423 28.6501 9.62177C29.3797 10.1093 29.9484 10.8023 30.2843 11.613C30.6201 12.4238 30.7079 13.3159 30.5367 14.1766C30.3655 15.0373 29.943 15.8279 29.3224 16.4484C28.7019 17.069 27.9113 17.4915 27.0506 17.6627C26.1899 17.8339 25.2978 17.7461 24.487 17.4103C23.6763 17.0744 22.9833 16.5057 22.4958 15.7761C22.0082 15.0464 21.748 14.1886 21.748 13.311L17.311 17.748C18.1886 17.748 19.0464 18.0082 19.7761 18.4958C20.5057 18.9833 21.0744 19.6763 21.4103 20.487C21.7461 21.2978 21.8339 22.1899 21.6627 23.0506C21.4915 23.9113 21.069 24.7019 20.4484 25.3224C19.8279 25.943 19.0373 26.3655 18.1766 26.5367C17.3159 26.7079 16.4238 26.6201 15.613 26.2843C14.8023 25.9484 14.1093 25.3797 13.6218 24.6501C13.1342 23.9204 12.874 23.0626 12.874 22.185V8.874ZM70.555 8.874C82.8011 8.874 92.74 22.7796 92.74 39.933C92.74 57.0864 82.8011 70.992 70.555 70.992C58.3089 70.992 48.37 57.0864 48.37 39.933C48.37 22.7796 58.3089 8.874 70.555 8.874ZM114.925 8.874H128.236V22.185C128.236 23.0626 127.976 23.9204 127.488 24.6501C127.001 25.3797 126.308 25.9484 125.497 26.2843C124.686 26.6201 123.794 26.7079 122.933 26.5367C122.073 26.3655 121.282 25.943 120.662 25.3224C120.041 24.7019 119.618 23.9113 119.447 23.0506C119.276 22.1899 119.364 21.2978 119.7 20.487C120.036 19.6763 120.604 18.9833 121.334 18.4958C122.064 18.0082 122.921 17.748 123.799 17.748L119.362 13.311C119.362 14.1886 119.102 15.0464 118.614 15.7761C118.127 16.5057 117.434 17.0744 116.623 17.4103C115.812 17.7461 114.92 17.8339 114.059 17.6627C113.199 17.4915 112.408 17.069 111.788 16.4484C111.167 15.8279 110.744 15.0373 110.573 14.1766C110.402 13.3159 110.49 12.4238 110.826 11.613C111.162 10.8023 111.73 10.1093 112.46 9.62177C113.19 9.13423 114.047 8.874 114.925 8.874ZM70.555 22.185C67.6887 22.185 65.8163 23.1523 64.5029 24.4035H76.6071C75.2937 23.1523 73.4213 22.185 70.555 22.185ZM62.7902 26.622C62.3909 27.4295 62.2401 28.1395 62.0803 28.8405H79.0297C78.8699 28.1395 78.728 27.4295 78.3197 26.622H62.7902ZM61.681 31.059V33.2775H79.429V31.059H61.681ZM61.681 35.496V37.7145H79.429V35.496H61.681ZM61.681 39.933V42.1515H79.429V39.933H61.681ZM61.681 44.37L59.4625 46.5885H77.2105L79.429 44.37H61.681ZM57.244 48.807C57.244 48.807 57.5546 49.7121 58.1491 51.0255H78.3197L74.992 48.807H57.244ZM17.311 53.244C18.4878 53.244 19.6163 53.7115 20.4484 54.5436C21.2805 55.3757 21.748 56.5042 21.748 57.681C21.748 58.8578 21.2805 59.9863 20.4484 60.8184C19.6163 61.6505 18.4878 62.118 17.311 62.118L21.748 66.555C21.748 65.6774 22.0082 64.8196 22.4958 64.0899C22.9833 63.3603 23.6763 62.7916 24.487 62.4557C25.2978 62.1199 26.1899 62.032 27.0506 62.2033C27.9113 62.3745 28.7019 62.797 29.3224 63.4176C29.943 64.0381 30.3655 64.8287 30.5367 65.6894C30.7079 66.5501 30.6201 67.4422 30.2843 68.253C29.9484 69.0637 29.3797 69.7567 28.6501 70.2442C27.9204 70.7318 27.0626 70.992 26.185 70.992H12.874V57.681C12.874 56.5042 13.3415 55.3757 14.1736 54.5436C15.0057 53.7115 16.1342 53.244 17.311 53.244ZM59.356 53.244C59.7642 54.0072 60.0304 54.655 60.5717 55.4625H80.698C81.2837 54.2379 81.6475 53.244 81.6475 53.244H59.356ZM123.799 53.244C124.976 53.244 126.104 53.7115 126.936 54.5436C127.769 55.3757 128.236 56.5042 128.236 57.681V70.992H114.925C114.047 70.992 113.19 70.7318 112.46 70.2442C111.73 69.7567 111.162 69.0637 110.826 68.253C110.49 67.4422 110.402 66.5501 110.573 65.6894C110.744 64.8287 111.167 64.0381 111.788 63.4176C112.408 62.797 113.199 62.3745 114.059 62.2033C114.92 62.032 115.812 62.1199 116.623 62.4557C117.434 62.7916 118.127 63.3603 118.614 64.0899C119.102 64.8196 119.362 65.6774 119.362 66.555L123.799 62.118C122.622 62.118 121.494 61.6505 120.662 60.8184C119.829 59.9863 119.362 58.8578 119.362 57.681C119.362 56.5042 119.829 55.3757 120.662 54.5436C121.494 53.7115 122.622 53.244 123.799 53.244ZM62.2667 57.681C62.9648 58.4974 63.7339 59.2369 64.5739 59.8995H77.175C78.0624 59.2162 78.8433 58.4619 79.429 57.681H62.2667Z" stroke="black" stroke-width="2" mask="url(#path-1-inside-1_26_8)"/>
</g>
<defs>
<filter id="filter0_d_26_8" x="0" y="0" width="141.11" height="87.866" filterUnits="userSpaceOnUse" color-interpolation-filters="sRGB">
<feFlood flood-opacity="0" result="BackgroundImageFix"/>
<feColorMatrix in="SourceAlpha" type="matrix" values="0 0 0 0 0 0 0 0 0 0 0 0 0 0 0 0 0 0 127 0" result="hardAlpha"/>
<feOffset dy="4"/>
<feGaussianBlur stdDeviation="2"/>
<feComposite in2="hardAlpha" operator="out"/>
<feColorMatrix type="matrix" values="0 0 0 0 0 0 0 0 0 0 0 0 0 0 0 0 0 0 0.25 0"/>
<feBlend mode="normal" in2="BackgroundImageFix" result="effect1_dropShadow_26_8"/>
<feBlend mode="normal" in="SourceGraphic" in2="effect1_dropShadow_26_8" result="shape"/>
</filter>
</defs>
</svg>
