<svg width="427" height="80" viewBox="0 0 427 80" fill="none" xmlns="http://www.w3.org/2000/svg">
<mask id="path-1-inside-1_27_10" fill="white">
<path d="M8.874 0C3.9578 0 0 3.9578 0 8.874V70.992C0 75.9082 3.9578 79.866 8.874 79.866H124.236C129.152 79.866 133.11 75.9082 133.11 70.992V8.874C133.11 3.9578 129.152 0 124.236 0H8.874ZM8.874 8.874H22.185C23.0626 8.874 23.9204 9.13423 24.6501 9.62177C25.3797 10.1093 25.9484 10.8023 26.2843 11.613C26.6201 12.4238 26.7079 13.3159 26.5367 14.1766C26.3655 15.0373 25.943 15.8279 25.3224 16.4484C24.7019 17.069 23.9113 17.4915 23.0506 17.6627C22.1899 17.8339 21.2978 17.7461 20.487 17.4103C19.6763 17.0744 18.9833 16.5057 18.4958 15.7761C18.0082 15.0464 17.748 14.1886 17.748 13.311L13.311 17.748C14.1886 17.748 15.0464 18.0082 15.7761 18.4958C16.5057 18.9833 17.0744 19.6763 17.4103 20.487C17.7461 21.2978 17.8339 22.1899 17.6627 23.0506C17.4915 23.9113 17.069 24.7019 16.4484 25.3224C15.8279 25.943 15.0373 26.3655 14.1766 26.5367C13.3159 26.7079 12.4238 26.6201 11.613 26.2843C10.8023 25.9484 10.1093 25.3797 9.62177 24.6501C9.13423 23.9204 8.874 23.0626 8.874 22.185V8.874ZM66.555 8.874C78.8011 8.874 88.74 22.7796 88.74 39.933C88.74 57.0864 78.8011 70.992 66.555 70.992C54.3089 70.992 44.37 57.0864 44.37 39.933C44.37 22.7796 54.3089 8.874 66.555 8.874ZM110.925 8.874H124.236V22.185C124.236 23.0626 123.976 23.9204 123.488 24.6501C123.001 25.3797 122.308 25.9484 121.497 26.2843C120.686 26.6201 119.794 26.7079 118.933 26.5367C118.073 26.3655 117.282 25.943 116.662 25.3224C116.041 24.7019 115.618 23.9113 115.447 23.0506C115.276 22.1899 115.364 21.2978 115.7 20.487C116.036 19.6763 116.604 18.9833 117.334 18.4958C118.064 18.0082 118.921 17.748 119.799 17.748L115.362 13.311C115.362 14.1886 115.102 15.0464 114.614 15.7761C114.127 16.5057 113.434 17.0744 112.623 17.4103C111.812 17.7461 110.92 17.8339 110.059 17.6627C109.199 17.4915 108.408 17.069 107.788 16.4484C107.167 15.8279 106.744 15.0373 106.573 14.1766C106.402 13.3159 106.49 12.4238 106.826 11.613C107.162 10.8023 107.73 10.1093 108.46 9.62177C109.19 9.13423 110.047 8.874 110.925 8.874ZM66.555 22.185C63.6887 22.185 61.8163 23.1523 60.5029 24.4035H72.6071C71.2937 23.1523 69.4213 22.185 66.555 22.185ZM58.7902 26.622C58.3909 27.4295 58.2401 28.1395 58.0803 28.8405H75.0297C74.8699 28.1395 74.728 27.4295 74.3197 26.622H58.7902ZM57.681 31.059V33.2775H75.429V31.059H57.681ZM57.681 35.496V37.7145H75.429V35.496H57.681ZM57.681 39.933V42.1515H75.429V39.933H57.681ZM57.681 44.37L55.4625 46.5885H73.2105L75.429 44.37H57.681ZM53.244 48.807C53.244 48.807 53.5546 49.7121 54.1491 51.0255H74.3197L70.992 48.807H53.244ZM13.311 53.244C14.4878 53.244 15.6163 53.7115 16.4484 54.5436C17.2805 55.3757 17.748 56.5042 17.748 57.681C17.748 58.8578 17.2805 59.9863 16.4484 60.8184C15.6163 61.6505 14.4878 62.118 13.311 62.118L17.748 66.555C17.748 65.6774 18.0082 64.8196 18.4958 64.0899C18.9833 63.3603 19.6763 62.7916 20.487 62.4557C21.2978 62.1199 22.1899 62.032 23.0506 62.2033C23.9113 62.3745 24.7019 62.797 25.3224 63.4176C25.943 64.0381 26.3655 64.8287 26.5367 65.6894C26.7079 66.5501 26.6201 67.4422 26.2843 68.253C25.9484 69.0637 25.3797 69.7567 24.6501 70.2442C23.9204 70.7318 23.0626 70.992 22.185 70.992H8.874V57.681C8.874 56.5042 9.34147 55.3757 10.1736 54.5436C11.0057 53.7115 12.1342 53.244 13.311 53.244ZM55.356 53.244C55.7642 54.0072 56.0304 54.655 56.5717 55.4625H76.698C77.2837 54.2379 77.6475 53.244 77.6475 53.244H55.356ZM119.799 53.244C120.976 53.244 122.104 53.7115 122.936 54.5436C123.769 55.3757 124.236 56.5042 124.236 57.681V70.992H110.925C110.047 70.992 109.19 70.7318 108.46 70.2442C107.73 69.7567 107.162 69.0637 106.826 68.253C106.49 67.4422 106.402 66.5501 106.573 65.6894C106.744 64.8287 107.167 64.0381 107.788 63.4176C108.408 62.797 109.199 62.3745 110.059 62.2033C110.92 62.032 111.812 62.1199 112.623 62.4557C113.434 62.7916 114.127 63.3603 114.614 64.0899C115.102 64.8196 115.362 65.6774 115.362 66.555L119.799 62.118C118.622 62.118 117.494 61.6505 116.662 60.8184C115.829 59.9863 115.362 58.8578 115.362 57.681C115.362 56.5042 115.829 55.3757 116.662 54.5436C117.494 53.7115 118.622 53.244 119.799 53.244ZM58.2667 57.681C58.9648 58.4974 59.7339 59.2369 60.5739 59.8995H73.175C74.0624 59.2162 74.8433 58.4619 75.429 57.681H58.2667Z"/>
</mask>
<path d="M8.874 0C3.9578 0 0 3.9578 0 8.874V70.992C0 75.9082 3.9578 79.866 8.874 79.866H124.236C129.152 79.866 133.11 75.9082 133.11 70.992V8.874C133.11 3.9578 129.152 0 124.236 0H8.874ZM8.874 8.874H22.185C23.0626 8.874 23.9204 9.13423 24.6501 9.62177C25.3797 10.1093 25.9484 10.8023 26.2843 11.613C26.6201 12.4238 26.7079 13.3159 26.5367 14.1766C26.3655 15.0373 25.943 15.8279 25.3224 16.4484C24.7019 17.069 23.9113 17.4915 23.0506 17.6627C22.1899 17.8339 21.2978 17.7461 20.487 17.4103C19.6763 17.0744 18.9833 16.5057 18.4958 15.7761C18.0082 15.0464 17.748 14.1886 17.748 13.311L13.311 17.748C14.1886 17.748 15.0464 18.0082 15.7761 18.4958C16.5057 18.9833 17.0744 19.6763 17.4103 20.487C17.7461 21.2978 17.8339 22.1899 17.6627 23.0506C17.4915 23.9113 17.069 24.7019 16.4484 25.3224C15.8279 25.943 15.0373 26.3655 14.1766 26.5367C13.3159 26.7079 12.4238 26.6201 11.613 26.2843C10.8023 25.9484 10.1093 25.3797 9.62177 24.6501C9.13423 23.9204 8.874 23.0626 8.874 22.185V8.874ZM66.555 8.874C78.8011 8.874 88.74 22.7796 88.74 39.933C88.74 57.0864 78.8011 70.992 66.555 70.992C54.3089 70.992 44.37 57.0864 44.37 39.933C44.37 22.7796 54.3089 8.874 66.555 8.874ZM110.925 8.874H124.236V22.185C124.236 23.0626 123.976 23.9204 123.488 24.6501C123.001 25.3797 122.308 25.9484 121.497 26.2843C120.686 26.6201 119.794 26.7079 118.933 26.5367C118.073 26.3655 117.282 25.943 116.662 25.3224C116.041 24.7019 115.618 23.9113 115.447 23.0506C115.276 22.1899 115.364 21.2978 115.7 20.487C116.036 19.6763 116.604 18.9833 117.334 18.4958C118.064 18.0082 118.921 17.748 119.799 17.748L115.362 13.311C115.362 14.1886 115.102 15.0464 114.614 15.7761C114.127 16.5057 113.434 17.0744 112.623 17.4103C111.812 17.7461 110.92 17.8339 110.059 17.6627C109.199 17.4915 108.408 17.069 107.788 16.4484C107.167 15.8279 106.744 15.0373 106.573 14.1766C106.402 13.3159 106.49 12.4238 106.826 11.613C107.162 10.8023 107.73 10.1093 108.46 9.62177C109.19 9.13423 110.047 8.874 110.925 8.874ZM66.555 22.185C63.6887 22.185 61.8163 23.1523 60.5029 24.4035H72.6071C71.2937 23.1523 69.4213 22.185 66.555 22.185ZM58.7902 26.622C58.3909 27.4295 58.2401 28.1395 58.0803 28.8405H75.0297C74.8699 28.1395 74.728 27.4295 74.3197 26.622H58.7902ZM57.681 31.059V33.2775H75.429V31.059H57.681ZM57.681 35.496V37.7145H75.429V35.496H57.681ZM57.681 39.933V42.1515H75.429V39.933H57.681ZM57.681 44.37L55.4625 46.5885H73.2105L75.429 44.37H57.681ZM53.244 48.807C53.244 48.807 53.5546 49.7121 54.1491 51.0255H74.3197L70.992 48.807H53.244ZM13.311 53.244C14.4878 53.244 15.6163 53.7115 16.4484 54.5436C17.2805 55.3757 17.748 56.5042 17.748 57.681C17.748 58.8578 17.2805 59.9863 16.4484 60.8184C15.6163 61.6505 14.4878 62.118 13.311 62.118L17.748 66.555C17.748 65.6774 18.0082 64.8196 18.4958 64.0899C18.9833 63.3603 19.6763 62.7916 20.487 62.4557C21.2978 62.1199 22.1899 62.032 23.0506 62.2033C23.9113 62.3745 24.7019 62.797 25.3224 63.4176C25.943 64.0381 26.3655 64.8287 26.5367 65.6894C26.7079 66.5501 26.6201 67.4422 26.2843 68.253C25.9484 69.0637 25.3797 69.7567 24.6501 70.2442C23.9204 70.7318 23.0626 70.992 22.185 70.992H8.874V57.681C8.874 56.5042 9.34147 55.3757 10.1736 54.5436C11.0057 53.7115 12.1342 53.244 13.311 53.244ZM55.356 53.244C55.7642 54.0072 56.0304 54.655 56.5717 55.4625H76.698C77.2837 54.2379 77.6475 53.244 77.6475 53.244H55.356ZM119.799 53.244C120.976 53.244 122.104 53.7115 122.936 54.5436C123.769 55.3757 124.236 56.5042 124.236 57.681V70.992H110.925C110.047 70.992 109.19 70.7318 108.46 70.2442C107.73 69.7567 107.162 69.0637 106.826 68.253C106.49 67.4422 106.402 66.5501 106.573 65.6894C106.744 64.8287 107.167 64.0381 107.788 63.4176C108.408 62.797 109.199 62.3745 110.059 62.2033C110.92 62.032 111.812 62.1199 112.623 62.4557C113.434 62.7916 114.127 63.3603 114.614 64.0899C115.102 64.8196 115.362 65.6774 115.362 66.555L119.799 62.118C118.622 62.118 117.494 61.6505 116.662 60.8184C115.829 59.9863 115.362 58.8578 115.362 57.681C115.362 56.5042 115.829 55.3757 116.662 54.5436C117.494 53.7115 118.622 53.244 119.799 53.244ZM58.2667 57.681C58.9648 58.4974 59.7339 59.2369 60.5739 59.8995H73.175C74.0624 59.2162 74.8433 58.4619 75.429 57.681H58.2667Z" fill="black" stroke="black" stroke-width="2" mask="url(#path-1-inside-1_27_10)"/>
<path d="M145 80V72.35H178.199C180.563 72.35 180.921 71.9857 180.921 69.5814C180.921 67.2014 180.563 66.8129 178.199 66.8129H145.31V59.1871H166.281V56.4186C166.281 54.0143 165.898 53.65 163.558 53.65H145V46H165.469C171.392 46 174.64 49.2786 174.64 55.3257V59.1871H180.133C186.056 59.1871 189.281 62.4657 189.281 68.4886V70.6743C189.281 76.7214 186.056 80 180.133 80H145Z" fill="black"/>
<path d="M229.894 66.8857C227.554 66.8857 227.195 67.2743 227.195 69.63C227.195 71.9857 227.554 72.35 229.894 72.35H256.286V66.8857H229.894ZM219.194 70.6743V68.5614C219.194 62.5386 222.419 59.26 228.342 59.26H256.286V56.4186C256.286 54.0143 255.928 53.65 253.587 53.65H221.224V46H255.14C261.063 46 264.287 49.2786 264.287 55.3257V74.0986H264.263V80H228.342C222.419 80 219.194 76.7214 219.194 70.6743Z" fill="black"/>
<path d="M298.57 46H336.116C342.039 46 345.287 49.2786 345.287 55.3257V80H336.928V56.4186C336.928 54.0143 336.546 53.65 334.205 53.65H306.93V80H298.57V46Z" fill="black"/>
<path d="M379.567 46H387.926V59.0171H403.355L416.945 46H427V47.1171L414.413 59.0171H417.852C423.776 59.0171 427 62.2957 427 68.3186V80H418.641V69.4114C418.641 67.0314 418.282 66.6429 415.942 66.6429H387.926V80H379.567V46Z" fill="black"/>
<path d="M185.673 0V7.3125H155.152C152.986 7.3125 152.658 7.66071 152.658 9.95893V22.5411C152.658 24.8393 152.986 25.1875 155.152 25.1875H185.673V32.5H153.402C147.954 32.5 145 29.3661 145 23.5857V8.91429C145 3.13393 147.954 0 153.402 0H185.673Z" fill="black"/>
<path d="M211.854 0L226.776 14.9036L241.697 0H251.171V1.06786L230.539 21.5661V32.5H222.881V21.5429L202.293 1.06786V0H211.854Z" fill="black"/>
<path d="M267.096 32.5V25.1875H297.508C299.674 25.1875 300.002 24.8393 300.002 22.5411C300.002 20.2661 299.674 19.8946 297.508 19.8946H267.38V12.6054H286.59V9.95893C286.59 7.66071 286.24 7.3125 284.096 7.3125H267.096V0H285.846C291.272 0 294.248 3.13393 294.248 8.91429V12.6054H299.28C304.706 12.6054 307.66 15.7393 307.66 21.4964V23.5857C307.66 29.3661 304.706 32.5 299.28 32.5H267.096Z" fill="black"/>
<path d="M327.952 12.6054H341.998V19.8946H327.952V12.6054ZM327.667 32.5V25.1875H365.824V32.5H327.667ZM327.667 7.3125V0H365.255V7.3125H327.667Z" fill="black"/>
<path d="M417.876 0C423.302 0 426.256 3.13393 426.256 8.91429V11.0036C426.256 16.7607 423.302 19.8946 417.876 19.8946H412.669L427 31.4321V32.5H417.767L397.398 16.25V12.6054H416.126C418.27 12.6054 418.598 12.2339 418.598 9.95893C418.598 7.66071 418.27 7.3125 416.126 7.3125H385.736V0H417.876Z" fill="black"/>
</svg>
