<svg width="200" height="200" viewBox="0 0 200 200" fill="none" xmlns="http://www.w3.org/2000/svg">
<rect width="199.65" height="199.65" rx="48" fill="black"/>
<path d="M41.874 54C36.9578 54 33 57.9578 33 62.874V124.992C33 129.908 36.9578 133.866 41.874 133.866H157.236C162.152 133.866 166.11 129.908 166.11 124.992V62.874C166.11 57.9578 162.152 54 157.236 54H41.874ZM41.874 62.874H55.185C56.0626 62.874 56.9204 63.1342 57.6501 63.6218C58.3797 64.1093 58.9484 64.8023 59.2843 65.613C59.6201 66.4238 59.7079 67.3159 59.5367 68.1766C59.3655 69.0373 58.943 69.8279 58.3224 70.4484C57.7019 71.069 56.9113 71.4915 56.0506 71.6627C55.1899 71.8339 54.2978 71.7461 53.487 71.4103C52.6763 71.0744 51.9833 70.5057 51.4958 69.7761C51.0082 69.0464 50.748 68.1886 50.748 67.311L46.311 71.748C47.1886 71.748 48.0464 72.0082 48.7761 72.4958C49.5057 72.9833 50.0744 73.6763 50.4103 74.487C50.7461 75.2978 50.8339 76.1899 50.6627 77.0506C50.4915 77.9113 50.069 78.7019 49.4484 79.3224C48.8279 79.943 48.0373 80.3655 47.1766 80.5367C46.3159 80.7079 45.4238 80.6201 44.613 80.2843C43.8023 79.9484 43.1093 79.3797 42.6218 78.6501C42.1342 77.9204 41.874 77.0626 41.874 76.185V62.874ZM99.555 62.874C111.801 62.874 121.74 76.7796 121.74 93.933C121.74 111.086 111.801 124.992 99.555 124.992C87.3089 124.992 77.37 111.086 77.37 93.933C77.37 76.7796 87.3089 62.874 99.555 62.874ZM143.925 62.874H157.236V76.185C157.236 77.0626 156.976 77.9204 156.488 78.6501C156.001 79.3797 155.308 79.9484 154.497 80.2843C153.686 80.6201 152.794 80.7079 151.933 80.5367C151.073 80.3655 150.282 79.943 149.662 79.3224C149.041 78.7019 148.618 77.9113 148.447 77.0506C148.276 76.1899 148.364 75.2978 148.7 74.487C149.036 73.6763 149.604 72.9833 150.334 72.4958C151.064 72.0082 151.921 71.748 152.799 71.748L148.362 67.311C148.362 68.1886 148.102 69.0464 147.614 69.7761C147.127 70.5057 146.434 71.0744 145.623 71.4103C144.812 71.7461 143.92 71.8339 143.059 71.6627C142.199 71.4915 141.408 71.069 140.788 70.4484C140.167 69.8279 139.744 69.0373 139.573 68.1766C139.402 67.3159 139.49 66.4238 139.826 65.613C140.162 64.8023 140.73 64.1093 141.46 63.6218C142.19 63.1342 143.047 62.874 143.925 62.874ZM99.555 76.185C96.6887 76.185 94.8163 77.1523 93.5029 78.4035H105.607C104.294 77.1523 102.421 76.185 99.555 76.185ZM91.7902 80.622C91.3909 81.4295 91.2401 82.1395 91.0803 82.8405H108.03C107.87 82.1395 107.728 81.4295 107.32 80.622H91.7902ZM90.681 85.059V87.2775H108.429V85.059H90.681ZM90.681 89.496V91.7145H108.429V89.496H90.681ZM90.681 93.933V96.1515H108.429V93.933H90.681ZM90.681 98.37L88.4625 100.588H106.21L108.429 98.37H90.681ZM86.244 102.807C86.244 102.807 86.5546 103.712 87.1491 105.025H107.32L103.992 102.807H86.244ZM46.311 107.244C47.4878 107.244 48.6163 107.711 49.4484 108.544C50.2805 109.376 50.748 110.504 50.748 111.681C50.748 112.858 50.2805 113.986 49.4484 114.818C48.6163 115.651 47.4878 116.118 46.311 116.118L50.748 120.555C50.748 119.677 51.0082 118.82 51.4958 118.09C51.9833 117.36 52.6763 116.792 53.487 116.456C54.2978 116.12 55.1899 116.032 56.0506 116.203C56.9113 116.374 57.7019 116.797 58.3224 117.418C58.943 118.038 59.3655 118.829 59.5367 119.689C59.7079 120.55 59.6201 121.442 59.2843 122.253C58.9484 123.064 58.3797 123.757 57.6501 124.244C56.9204 124.732 56.0626 124.992 55.185 124.992H41.874V111.681C41.874 110.504 42.3415 109.376 43.1736 108.544C44.0057 107.711 45.1342 107.244 46.311 107.244ZM88.356 107.244C88.7642 108.007 89.0304 108.655 89.5717 109.462H109.698C110.284 108.238 110.647 107.244 110.647 107.244H88.356ZM152.799 107.244C153.976 107.244 155.104 107.711 155.936 108.544C156.769 109.376 157.236 110.504 157.236 111.681V124.992H143.925C143.047 124.992 142.19 124.732 141.46 124.244C140.73 123.757 140.162 123.064 139.826 122.253C139.49 121.442 139.402 120.55 139.573 119.689C139.744 118.829 140.167 118.038 140.788 117.418C141.408 116.797 142.199 116.374 143.059 116.203C143.92 116.032 144.812 116.12 145.623 116.456C146.434 116.792 147.127 117.36 147.614 118.09C148.102 118.82 148.362 119.677 148.362 120.555L152.799 116.118C151.622 116.118 150.494 115.651 149.662 114.818C148.829 113.986 148.362 112.858 148.362 111.681C148.362 110.504 148.829 109.376 149.662 108.544C150.494 107.711 151.622 107.244 152.799 107.244ZM91.2667 111.681C91.9648 112.497 92.7339 113.237 93.5739 113.899H106.175C107.062 113.216 107.843 112.462 108.429 111.681H91.2667Z" fill="#2DD4BF"/>
<path d="M41 155V151.85H54.9C55.89 151.85 56.04 151.7 56.04 150.71C56.04 149.73 55.89 149.57 54.9 149.57H41.13V146.43H49.91V145.29C49.91 144.3 49.75 144.15 48.77 144.15H41V141H49.57C52.05 141 53.41 142.35 53.41 144.84V146.43H55.71C58.19 146.43 59.54 147.78 59.54 150.26V151.16C59.54 153.65 58.19 155 55.71 155H41Z" fill="#2DD4BF"/>
<path d="M76.5445 149.6C75.5645 149.6 75.4145 149.76 75.4145 150.73C75.4145 151.7 75.5645 151.85 76.5445 151.85H87.5945V149.6H76.5445ZM72.0645 151.16V150.29C72.0645 147.81 73.4145 146.46 75.8945 146.46H87.5945V145.29C87.5945 144.3 87.4445 144.15 86.4645 144.15H72.9145V141H87.1145C89.5945 141 90.9445 142.35 90.9445 144.84V152.57H90.9345V155H75.8945C73.4145 155 72.0645 153.65 72.0645 151.16Z" fill="#2DD4BF"/>
<path d="M105.299 141H121.019C123.499 141 124.859 142.35 124.859 144.84V155H121.359V145.29C121.359 144.3 121.199 144.15 120.219 144.15H108.799V155H105.299V141Z" fill="#2DD4BF"/>
<path d="M139.211 141H142.711V146.36H149.171L154.861 141H159.071V141.46L153.801 146.36H155.241C157.721 146.36 159.071 147.71 159.071 150.19V155H155.571V150.64C155.571 149.66 155.421 149.5 154.441 149.5H142.711V155H139.211V141Z" fill="#2DD4BF"/>
</svg>
