<svg width="200" height="200" viewBox="0 0 200 200" fill="none" xmlns="http://www.w3.org/2000/svg">
<rect x="0.279053" width="199.643" height="199.643" rx="48" fill="black"/>
<path d="M150.28 62.6143C143.405 52.8051 133.876 45.1601 122.809 40.5765C129.012 51.4908 133.415 63.3333 135.851 75.6487C141.265 72.0238 146.125 67.6334 150.28 62.6143ZM124.958 81.5385C122.311 65.1648 115.827 49.6501 106.034 36.2631C101.277 35.7165 96.4723 35.7165 91.7146 36.2631C81.9226 49.6501 75.438 65.1648 72.7913 81.5385C81.0415 85.0386 89.9127 86.8391 98.8745 86.8323C108.128 86.8323 116.943 84.9501 124.958 81.5385ZM71.5366 93.7025C80.2855 96.9473 89.5433 98.6045 98.8745 98.5963C108.489 98.5963 117.696 96.8709 126.213 93.7025C126.286 95.3233 126.322 96.9545 126.322 98.5963C126.33 106.873 125.366 115.122 123.452 123.175C115.4 125.089 107.151 126.053 98.8745 126.045C90.4128 126.045 82.1863 125.049 74.297 123.175C72.0014 113.529 71.0721 103.607 71.5366 93.7025ZM61.8985 75.6487C64.3345 63.336 68.7381 51.4962 74.9401 40.5844C63.8736 45.168 54.3438 52.8129 47.4688 62.6221C51.625 67.6356 56.4853 72.0286 61.8985 75.6487ZM156.389 73.4842C160.812 83.6287 162.474 94.7627 161.204 105.757C153.539 111.35 145.156 115.887 136.282 119.246C138.094 109.053 138.553 98.6663 137.646 88.3538C144.618 84.3851 150.939 79.3702 156.389 73.4842ZM41.3597 73.4842C46.8101 79.3702 53.1313 84.3851 60.1026 88.3538C59.2137 98.6693 59.6724 109.057 61.4672 119.254C52.5927 115.895 44.2101 111.357 36.5446 105.764C35.2779 94.7698 36.9418 83.6358 41.3676 73.492M98.8745 137.809C105.927 137.799 112.81 137.198 119.523 136.006C116.164 144.881 111.627 153.264 106.034 160.929C101.277 161.476 96.4723 161.476 91.7146 160.929C86.1218 153.264 81.585 144.881 78.226 136.006C84.9337 137.198 91.8166 137.799 98.8745 137.809ZM133.043 132.767C130.521 141.067 127.089 149.063 122.809 156.608C138.236 150.217 150.492 137.959 156.883 122.532C149.41 126.783 141.426 130.226 133.043 132.767ZM74.9401 156.608C59.5135 150.217 47.257 137.959 40.8657 122.532C48.3393 126.783 56.3227 130.226 64.706 132.767C67.2279 141.067 70.6602 149.063 74.9401 156.608Z" fill="#2DD4BF"/>
</svg>
