<svg width="200" height="200" viewBox="0 0 200 200" fill="none" xmlns="http://www.w3.org/2000/svg">
<rect x="0.260681" width="199.65" height="199.65" rx="48" fill="black"/>
<path d="M42.7146 127.729L43.2305 125.15L44.7783 122.938L75.1444 94.2676L44.7783 65.5967L43.2305 63.4592L42.7146 60.8796L43.2305 58.3736L44.7783 56.1625L47.0631 54.7621L49.7902 54.2462L52.5172 54.7621L54.8021 56.1625L90.1801 89.5505L91.7278 91.7616L92.2438 94.2676L91.7278 96.8472L90.1801 99.0583L54.8021 132.446L52.5172 133.847L49.7902 134.363L47.0631 133.847L44.7783 132.446L43.2305 130.235L42.7146 127.729Z" fill="#30F160"/>
<path d="M93.9714 138.859L94.4873 136.279L96.0351 134.141L98.3199 132.667L101.047 132.151H148.218L150.945 132.667L153.23 134.141L154.777 136.279L155.293 138.859L154.777 141.364L153.23 143.576L150.945 144.976L148.218 145.492H101.047L98.3199 144.976L96.0351 143.576L94.4873 141.364L93.9714 138.859Z" fill="#30F160"/>
</svg>
