<svg width="200" height="200" viewBox="0 0 200 200" fill="none" xmlns="http://www.w3.org/2000/svg">
<rect width="199.643" height="199.643" rx="48" fill="black"/>
<path d="M84.906 82.662C84.9113 74.0011 88.3541 65.6965 94.4783 59.5723C100.602 53.4481 108.907 50.0053 117.568 50C135.5 50 150.23 64.0571 150.23 82.1634C150.225 90.8242 146.782 99.1289 140.658 105.253C134.534 111.377 126.229 114.82 117.568 114.825C114.956 114.815 112.355 114.473 109.829 113.808C109.77 115.419 109.088 116.945 107.928 118.065C106.767 119.184 105.218 119.81 103.606 119.812H94.8791V128.538C94.8791 131.979 92.0866 134.772 88.6459 134.772H79.9194V141.005C79.9194 143.319 79 145.539 77.3635 147.175C75.7269 148.812 73.5073 149.731 71.1929 149.731H58.7265C56.4121 149.731 54.1925 148.812 52.5559 147.175C50.9194 145.539 50 143.319 50 141.005V130.174C50 126.534 51.4461 123.048 54.0192 120.48L85.1054 89.3839C85.2553 89.2229 85.3651 89.0288 85.4258 88.8174C85.4864 88.6059 85.4963 88.3832 85.4545 88.1672C85.1126 86.3515 84.9291 84.5095 84.906 82.662ZM131.281 74.6835C131.281 73.0304 130.624 71.4449 129.455 70.276C128.286 69.107 126.701 68.4503 125.048 68.4503C123.395 68.4503 121.809 69.107 120.64 70.276C119.471 71.4449 118.815 73.0304 118.815 74.6835C118.815 76.3367 119.471 77.9221 120.64 79.0911C121.809 80.26 123.395 80.9167 125.048 80.9167C126.701 80.9167 128.286 80.26 129.455 79.0911C130.624 77.9221 131.281 76.3367 131.281 74.6835Z" fill="#2DD4BF"/>
</svg>
