<svg width="200" height="200" viewBox="0 0 200 200" fill="none" xmlns="http://www.w3.org/2000/svg">
<rect width="199.643" height="199.643" rx="48" fill="black"/>
<path fill-rule="evenodd" clip-rule="evenodd" d="M79.7139 72.6223V67.2196C79.7139 61.857 81.8635 56.7141 85.6899 52.9222C89.5163 49.1303 94.706 47 100.117 47C105.529 47 110.718 49.1303 114.545 52.9222C118.371 56.7141 120.521 61.857 120.521 67.2196V72.6223C135.124 72.687 142.883 73.2693 147.235 78.5318C152.132 84.4521 150.331 93.4027 146.719 111.309L143.454 127.485C140.94 139.935 139.684 146.157 135.168 149.824C130.657 153.49 124.253 153.49 111.445 153.49H88.7893C75.976 153.49 69.5721 153.49 65.0561 149.824C60.5456 146.157 59.2888 139.935 56.7751 127.485L53.5105 111.309C49.8978 93.4081 48.0914 84.4575 52.9882 78.5318C57.3409 73.2693 65.1051 72.687 79.7085 72.6223M87.8753 67.2196C87.8753 64.0021 89.165 60.9163 91.4609 58.6412C93.7567 56.366 96.8705 55.0878 100.117 55.0878C103.364 55.0878 106.478 56.366 108.774 58.6412C111.07 60.9163 112.359 64.0021 112.359 67.2196V72.6115H87.8753V67.2196ZM116.44 94.1791C117.883 94.1791 119.267 93.611 120.287 92.5999C121.308 91.5887 121.881 90.2172 121.881 88.7872C121.881 87.3572 121.308 85.9857 120.287 84.9746C119.267 83.9634 117.883 83.3953 116.44 83.3953C114.997 83.3953 113.613 83.9634 112.593 84.9746C111.572 85.9857 110.999 87.3572 110.999 88.7872C110.999 90.2172 111.572 91.5887 112.593 92.5999C113.613 93.611 114.997 94.1791 116.44 94.1791ZM89.2355 88.7872C89.2355 90.2172 88.6622 91.5887 87.6419 92.5999C86.6215 93.611 85.2376 94.1791 83.7946 94.1791C82.3516 94.1791 80.9676 93.611 79.9473 92.5999C78.9269 91.5887 78.3537 90.2172 78.3537 88.7872C78.3537 87.3572 78.9269 85.9857 79.9473 84.9746C80.9676 83.9634 82.3516 83.3953 83.7946 83.3953C85.2376 83.3953 86.6215 83.9634 87.6419 84.9746C88.6622 85.9857 89.2355 87.3572 89.2355 88.7872Z" fill="#2DD4BF"/>
</svg>
