<svg width="200" height="200" viewBox="0 0 200 200" fill="none" xmlns="http://www.w3.org/2000/svg">
<rect x="0.242676" width="199.643" height="199.643" rx="48" fill="black"/>
<path fill-rule="evenodd" clip-rule="evenodd" d="M36.5349 62.338C36.0957 64.3171 36.0957 66.6942 36.0957 71.4375V109.352C36.0957 129.633 36.0957 139.776 43.4492 146.073C50.8027 152.371 62.6298 152.376 86.2902 152.376H111.387C135.048 152.376 146.881 152.376 154.228 146.073C161.576 139.77 161.582 129.633 161.582 109.352V97.51C161.582 83.3551 161.582 76.2723 156.751 71.6742C156.307 71.2498 155.838 70.8459 155.345 70.4641C149.981 66.3285 141.717 66.3285 125.203 66.3285H122.857C115.623 66.3285 112.002 66.3285 108.627 65.5056C106.774 65.0517 104.989 64.4165 103.306 63.6126C100.244 62.1551 97.6843 59.9555 92.5645 55.5725L89.1136 52.6146C87.3945 51.141 86.5412 50.4096 85.6377 49.7643C81.7518 47.0034 76.985 45.311 71.9597 44.908C70.7926 44.8165 69.5754 44.8165 67.1535 44.8165C61.6133 44.8165 58.8464 44.8165 56.5374 45.193C51.5797 45.9955 47.0193 48.0602 43.4511 51.1176C39.883 54.1751 37.4727 58.0888 36.5349 62.338ZM100.407 87.8404C100.407 86.7706 100.903 85.7447 101.786 84.9883C102.668 84.2318 103.865 83.8069 105.113 83.8069H136.485C137.733 83.8069 138.93 84.2318 139.812 84.9883C140.695 85.7447 141.19 86.7706 141.19 87.8404C141.19 88.9101 140.695 89.9361 139.812 90.6925C138.93 91.4489 137.733 91.8739 136.485 91.8739H105.113C103.865 91.8739 102.668 91.4489 101.786 90.6925C100.903 89.9361 100.407 88.9101 100.407 87.8404Z" fill="#30F160"/>
</svg>
