<svg width="200" height="200" viewBox="0 0 200 200" fill="none" xmlns="http://www.w3.org/2000/svg">
<rect width="199.658" height="199.658" rx="48" fill="black"/>
<path d="M99.745 43C99.745 43 60.9309 76.6259 39.24 94.8368C38.5495 95.4401 37.9932 96.1825 37.6073 97.0157C37.2213 97.8488 37.0144 98.7542 37 99.6729C37 101.343 37.6611 102.945 38.8378 104.126C40.0145 105.306 41.6104 105.97 43.2745 105.97H55.8235V150.049C55.8235 151.719 56.4846 153.321 57.6613 154.501C58.838 155.682 60.4339 156.346 62.098 156.346H80.9215C82.5856 156.346 84.1815 155.682 85.3582 154.501C86.5349 153.321 87.196 151.719 87.196 150.049V124.861H112.294V150.049C112.294 151.719 112.955 153.321 114.132 154.501C115.308 155.682 116.904 156.346 118.568 156.346H137.392C139.056 156.346 140.652 155.682 141.829 154.501C143.005 153.321 143.666 151.719 143.666 150.049V105.97H156.215C157.88 105.97 159.476 105.306 160.652 104.126C161.829 102.945 162.49 101.343 162.49 99.6729C162.481 98.7367 162.26 97.8147 161.844 96.9768C161.428 96.1389 160.827 95.4071 160.087 94.8368C138.547 76.6259 99.745 43 99.745 43Z" fill="#2DD4BF"/>
</svg>
