<svg width="200" height="200" viewBox="0 0 200 200" fill="none" xmlns="http://www.w3.org/2000/svg">
<rect width="199.658" height="199.658" rx="48" fill="black"/>
<path d="M36.259 152.611C35.331 152.611 34.5547 152.298 33.9303 151.674C33.3058 151.049 32.9957 150.277 33 149.357C33.0044 148.437 33.3166 147.663 33.9368 147.034C34.5569 146.405 35.3288 146.092 36.2525 146.097H162.853C163.777 146.097 164.548 146.409 165.169 147.034C165.789 147.658 166.101 148.431 166.105 149.35C166.11 150.27 165.797 151.044 165.169 151.674C164.54 152.303 163.768 152.615 162.853 152.611H36.259ZM51.5198 139.596C48.5231 139.596 46.0231 138.592 44.0195 136.583C42.016 134.574 41.012 132.073 41.0077 129.08V65.5094C41.0077 62.516 42.0116 60.015 44.0195 58.0064C46.0274 55.9978 48.5253 54.9957 51.5133 55H147.592C150.584 55 153.082 56.0021 155.086 58.0064C157.089 60.0107 158.093 62.5117 158.098 65.5094V129.086C158.098 132.08 157.094 134.579 155.086 136.583C153.078 138.587 150.578 139.592 147.586 139.596H51.5198Z" fill="#30F160"/>
</svg>
