<svg width="200" height="200" viewBox="0 0 200 200" fill="none" xmlns="http://www.w3.org/2000/svg">
<rect x="0.0876465" y="0.35022" width="199.65" height="199.65" rx="48" fill="black"/>
<path d="M166.11 70.5273V133.522C166.11 138.615 164.164 143.515 160.671 147.22C157.177 150.926 152.399 153.156 147.315 153.455L146.143 153.488H52.9665C47.8736 153.488 42.9732 151.543 39.2677 148.049C35.5623 144.555 33.3321 139.777 33.0333 134.693L33 133.522V70.5273L95.8612 112.437L96.6332 112.876C97.5431 113.321 98.5424 113.552 99.555 113.552C100.568 113.552 101.567 113.321 102.477 112.876L103.249 112.437L166.11 70.5273Z" fill="#30F160"/>
<path d="M146.144 47C153.332 47 159.635 50.7936 163.149 56.4974L99.5553 98.8929L35.962 56.4974C37.6312 53.7874 39.924 51.5158 42.6493 49.8718C45.3746 48.2278 48.4534 47.2591 51.6291 47.0466L52.9668 47H146.144Z" fill="#30F160"/>
</svg>
