<svg width="200" height="200" viewBox="0 0 200 200" fill="none" xmlns="http://www.w3.org/2000/svg">
<rect x="0.251709" width="199.658" height="199.658" rx="48" fill="black"/>
<path fill-rule="evenodd" clip-rule="evenodd" d="M100.081 33.2765C101.846 33.2765 103.538 33.9777 104.787 35.2258C106.035 36.4739 106.736 38.1667 106.736 39.9318V46.9997C111.552 47.6023 116.263 48.8607 120.739 50.7399L124.266 44.6304C124.7 43.8674 125.28 43.1977 125.974 42.66C126.667 42.1222 127.461 41.727 128.308 41.497C129.155 41.267 130.039 41.2069 130.909 41.32C131.78 41.4332 132.619 41.7173 133.379 42.1562C134.139 42.5951 134.805 43.1799 135.338 43.8771C135.871 44.5744 136.261 45.3701 136.486 46.2187C136.71 47.0672 136.764 47.9518 136.645 48.8214C136.526 49.691 136.237 50.5285 135.793 51.2857L132.259 57.4085C136.119 60.3368 139.566 63.7909 142.508 67.6576L148.631 64.117C149.388 63.6731 150.225 63.3834 151.095 63.2645C151.965 63.1456 152.849 63.1999 153.698 63.4242C154.546 63.6485 155.342 64.0385 156.039 64.5717C156.736 65.1048 157.321 65.7706 157.76 66.5307C158.199 67.2908 158.483 68.1302 158.596 69.0006C158.709 69.871 158.649 70.7551 158.419 71.6021C158.189 72.4492 157.794 73.2424 157.256 73.936C156.719 74.6297 156.049 75.2101 155.286 75.6439L149.163 79.1712C151.02 83.5704 152.298 88.269 152.91 93.1739H159.978C161.743 93.1739 163.436 93.8751 164.684 95.1232C165.932 96.3713 166.633 98.0641 166.633 99.8292C166.633 101.594 165.932 103.287 164.684 104.535C163.436 105.783 161.743 106.484 159.978 106.484H152.91C152.307 111.301 151.049 116.012 149.17 120.487L155.279 124.014C156.042 124.448 156.712 125.029 157.25 125.722C157.788 126.416 158.183 127.209 158.413 128.056C158.643 128.903 158.703 129.787 158.59 130.658C158.477 131.528 158.192 132.368 157.754 133.128C157.315 133.888 156.73 134.554 156.033 135.087C155.335 135.62 154.54 136.01 153.691 136.234C152.843 136.459 151.958 136.513 151.088 136.394C150.219 136.275 149.381 135.985 148.624 135.541L142.501 132.007C139.568 135.875 136.12 139.323 132.252 142.257L135.793 148.379C136.237 149.137 136.526 149.974 136.645 150.844C136.764 151.713 136.71 152.598 136.486 153.446C136.261 154.295 135.871 155.091 135.338 155.788C134.805 156.485 134.139 157.07 133.379 157.509C132.619 157.948 131.78 158.232 130.909 158.345C130.039 158.458 129.155 158.398 128.308 158.168C127.461 157.938 126.667 157.543 125.974 157.005C125.28 156.467 124.7 155.798 124.266 155.035L120.739 148.912C116.264 150.793 111.552 152.054 106.736 152.659V159.727C106.736 161.492 106.035 163.185 104.787 164.433C103.538 165.681 101.846 166.382 100.081 166.382C98.3155 166.382 96.6227 165.681 95.3746 164.433C94.1265 163.185 93.4253 161.492 93.4253 159.727V152.659C88.609 152.056 83.8978 150.798 79.4226 148.918L75.8953 155.028C75.4615 155.791 74.881 156.461 74.1874 156.998C73.4937 157.536 72.7005 157.931 71.8535 158.161C71.0065 158.391 70.1223 158.451 69.2519 158.338C68.3815 158.225 67.5421 157.941 66.782 157.502C66.0219 157.063 65.3561 156.478 64.823 155.781C64.2899 155.084 63.8999 154.288 63.6756 153.44C63.4512 152.591 63.3969 151.707 63.5158 150.837C63.6347 149.967 63.9245 149.13 64.3684 148.373L67.9023 142.25C64.0347 139.317 60.5864 135.868 57.6532 132.001L51.5303 135.541C50.7732 135.985 49.9357 136.275 49.0661 136.394C48.1965 136.513 47.3119 136.459 46.4634 136.234C45.6148 136.01 44.819 135.62 44.1218 135.087C43.4246 134.554 42.8397 133.888 42.4009 133.128C41.962 132.368 41.6778 131.528 41.5647 130.658C41.4516 129.787 41.5117 128.903 41.7417 128.056C41.9717 127.209 42.3669 126.416 42.9047 125.722C43.4424 125.029 44.1121 124.448 44.8751 124.014L50.9979 120.487C49.1142 116.013 47.8513 111.301 47.2443 106.484H40.1831C38.418 106.484 36.7252 105.783 35.4771 104.535C34.229 103.287 33.5278 101.594 33.5278 99.8292C33.5278 98.0641 34.229 96.3713 35.4771 95.1232C36.7252 93.8751 38.418 93.1739 40.1831 93.1739H47.251C47.8537 88.3577 49.1121 83.6465 50.9913 79.1712L44.8817 75.6439C43.3656 74.7551 42.2626 73.3027 41.8134 71.6037C41.3642 69.9046 41.6053 68.0968 42.484 66.5748C43.3627 65.0529 44.8078 63.9402 46.5039 63.4798C48.1999 63.0193 50.0092 63.2484 51.537 64.117L57.6598 67.651C60.5882 63.7909 64.0422 60.3435 67.909 57.4018L64.3684 51.279C63.4997 49.7512 63.2707 47.9419 63.7311 46.2459C64.1916 44.5498 65.3042 43.1047 66.8262 42.226C68.3482 41.3473 70.1559 41.1062 71.855 41.5554C73.5541 42.0046 75.0065 43.1076 75.8953 44.6237L79.4226 50.7466C83.8972 48.8628 88.6084 47.5999 93.4253 46.993V39.9318C93.4253 38.1667 94.1265 36.4739 95.3746 35.2258C96.6227 33.9777 98.3155 33.2765 100.081 33.2765ZM100.081 107.516L69.3066 125.286C72.2777 128.877 75.8546 131.92 79.8751 134.277L80.361 134.563C86.3735 137.973 93.1683 139.764 100.081 139.761C106.536 139.761 112.632 138.23 118.03 135.508L120.293 134.277C124.311 131.917 127.886 128.872 130.855 125.279L100.081 107.516ZM93.4253 60.45C89.4823 61.1156 85.6617 62.3697 82.0913 64.1703L80.361 65.102L79.8751 65.3815C74.5843 68.4857 70.0798 72.767 66.711 77.8934L65.6329 79.6238L65.3533 80.1096C61.9409 86.1215 60.1476 92.9163 60.1489 99.8292C60.1489 104.022 60.7945 108.082 61.9991 111.875L62.6446 113.759L93.4253 95.9891V60.45ZM106.736 60.45V95.9891L137.516 113.759C139.171 109.301 140.016 104.584 140.012 99.8292C140.012 93.3736 138.481 87.2774 135.759 81.8799L134.808 80.1096L134.595 79.7436L134.528 79.6238C131.424 74.333 127.143 69.8284 122.016 66.4597L119.8 65.0953C116.341 63.132 112.609 61.6963 108.726 60.836L106.736 60.45Z" fill="#30F160"/>
</svg>
