<svg width="200" height="200" viewBox="0 0 200 200" fill="none" xmlns="http://www.w3.org/2000/svg">
<rect x="0.27002" width="199.643" height="199.643" rx="48" fill="black"/>
<path d="M65.7719 132.281V135.696H56.7159V147.46H53.0559V135.696H44V132.281H65.7719Z" fill="#2DD4BF"/>
<path d="M79.6886 141.606C78.6638 141.606 78.5069 141.779 78.5069 142.831C78.5069 143.882 78.6638 144.045 79.6886 144.045H91.2438V141.606H79.6886ZM75.0038 143.297V142.354C75.0038 139.665 76.4155 138.201 79.0089 138.201H91.2438V136.933C91.2438 135.859 91.0869 135.696 90.0621 135.696H75.8926V132.281H90.7418C93.3352 132.281 94.747 133.745 94.747 136.445V144.826H94.7365V147.46H79.0089C76.4155 147.46 75.0038 145.997 75.0038 143.297Z" fill="#2DD4BF"/>
<path d="M123.927 132.281V135.696H110.594C109.569 135.696 109.402 135.859 109.402 136.911C109.402 137.963 109.569 138.136 110.594 138.136H120.758C123.352 138.136 124.763 139.6 124.763 142.289V143.297C124.763 145.997 123.352 147.46 120.758 147.46H105.679V144.045H119.922C120.946 144.045 121.103 143.882 121.103 142.809V142.777C121.103 141.703 120.946 141.541 119.922 141.541H109.757C107.164 141.541 105.742 140.077 105.742 137.388V136.445C105.742 133.745 107.164 132.281 109.757 132.281H123.927Z" fill="#2DD4BF"/>
<path d="M135.812 132.281H139.472V138.093H146.227L152.178 132.281H156.58V132.78L151.069 138.093H152.575C155.168 138.093 156.58 139.556 156.58 142.245V147.46H152.92V142.733C152.92 141.671 152.763 141.497 151.738 141.497H139.472V147.46H135.812V132.281Z" fill="#2DD4BF"/>
<path d="M143.214 61.3507C144.373 60.1988 145.014 58.656 145 57.0546C144.985 55.4532 144.316 53.9213 143.137 52.7889C141.957 51.6565 140.361 51.0141 138.693 51.0002C137.025 50.9863 135.418 51.6019 134.218 52.7145L87.7761 97.3002L66.7817 77.145C65.5818 76.0325 63.9748 75.4169 62.3067 75.4308C60.6386 75.4447 59.0429 76.087 57.8634 77.2194C56.6838 78.3518 56.0147 79.8837 56.0002 81.4851C55.9857 83.0865 56.627 84.6293 57.7859 85.7812L83.2337 110.212C84.4267 111.357 86.0446 112 87.7316 112C89.4185 112 91.0364 111.357 92.2295 110.212L143.125 61.3507H143.214Z" fill="#2DD4BF"/>
</svg>
