<svg width="200" height="200" viewBox="0 0 200 200" fill="none" xmlns="http://www.w3.org/2000/svg">
<rect x="0.27002" width="199.643" height="199.643" rx="48" fill="black"/>
<path d="M70.1828 83.5144L66.5184 93.2529L61.2254 106.421L60.1396 108.341L58.511 114.376L57.2895 115.062H43.989L42.7675 113.827L42.4961 111.77L34.3529 96.2705L27.1598 68.7008L27.4312 67.192L32.7243 66.369L33.81 67.0548L40.596 84.7488L46.8391 93.5273L50.9107 95.4475L54.4394 86.8063L55.2537 81.5941L61.4968 67.0548H71.9472L73.5758 67.3291V71.0325L81.0404 85.1603L87.1478 95.5847L89.1836 88.3151L91.2193 84.4745L95.4266 81.4569L101.398 67.0548H113.07L114.97 67.3291V70.7582L112.527 77.0677L111.034 84.886L106.556 93.2529L101.398 106.283L100.177 108.341L98.5482 114.376L97.3267 115.062H84.1619L82.8047 113.827L82.5333 111.77L74.5259 96.2705L72.8972 90.3725L70.1828 83.5144Z" fill="#30F160"/>
<path d="M154.691 84.2002C158.763 86.3948 161.93 89.3209 164.192 92.9786C166.454 96.5448 167.585 100.843 167.585 105.872C167.585 107.426 166.997 108.981 165.82 110.535C164.735 111.999 163.423 113.279 161.885 114.376C160.346 115.473 158.763 116.433 157.134 117.256C155.596 118.079 154.375 118.674 153.47 119.04L138.677 123.977C137.772 124.618 136.777 125.029 135.691 125.212C134.605 125.395 133.61 125.486 132.705 125.486L126.733 123.566H117.776L116.283 124.8H114.247L113.704 121.646V97.505L112.89 97.0935L115.469 96.8192V59.9223L117.912 57.8649L123.476 58.825L124.698 57.5906H126.869L134.198 56.7676C134.198 57.3162 134.696 57.682 135.691 57.8649C136.686 58.0478 137.727 58.1392 138.812 58.1392C142.432 58.4135 145.553 59.1908 148.177 60.471C150.891 61.6597 153.153 63.1685 154.963 64.9974C156.773 66.7348 158.13 68.7465 159.035 71.0325C160.03 73.3186 160.527 75.6046 160.527 77.8907C160.527 78.4393 160.256 79.0337 159.713 79.6738C159.261 80.3139 158.718 80.954 158.084 81.5941C157.542 82.1427 156.953 82.6457 156.32 83.1029C155.687 83.5601 155.144 83.9258 154.691 84.2002ZM129.719 81.4569L137.727 82.2799C137.727 82.4628 137.862 82.5542 138.134 82.5542C138.405 82.5542 138.722 82.5085 139.084 82.4171C139.446 82.2342 139.808 82.097 140.17 82.0056C140.622 81.8227 140.984 81.6855 141.255 81.5941C141.617 81.4112 141.843 81.274 141.934 81.1826L146.005 80.3596L150.756 73.7758C150.213 72.2213 149.353 71.0782 148.177 70.3467C147.091 69.6152 145.824 69.158 144.377 68.9751C142.929 68.7008 141.391 68.5179 139.762 68.4264C138.134 68.335 136.596 68.1064 135.148 67.7406C134.243 67.5577 133.565 67.4206 133.112 67.3291C132.66 67.1462 132.343 67.0091 132.162 66.9176C131.981 66.7348 131.845 66.6433 131.755 66.6433C131.664 66.5519 131.529 66.5061 131.348 66.5061C131.257 66.5061 130.443 66.6433 128.905 66.9176V74.3244L129.719 81.4569ZM131.212 93.8016V101.757L132.298 108.067V111.496H134.198L153.063 107.929L157.949 101.071C157.496 99.0595 156.682 97.5964 155.506 96.682C154.33 95.7676 152.972 95.1275 151.434 94.7617C149.987 94.396 148.403 94.1673 146.684 94.0759C145.055 93.893 143.472 93.6187 141.934 93.2529C140.939 92.9786 140.079 92.75 139.355 92.5671C138.722 92.3842 137.998 92.2928 137.184 92.2928H136.641C135.646 92.5671 134.696 92.8414 133.791 93.1158C132.886 93.3901 132.026 93.6187 131.212 93.8016Z" fill="#30F160"/>
<path d="M55.6482 142.216L55.2325 144.536L52.9228 144.304L50.9827 144.953L46.1785 144.628L44.7465 145.046L41.0048 144.721L39.85 144.953L39.2957 143.886L39.1109 141.288V132.659L39.9886 128.205V123.798L40.6815 122.777L43.7765 122.499L44.1922 123.055L44.5618 127.648L45.6704 130.478V140.546L45.9938 141.566L47.1948 141.288L49.4121 141.566L50.8903 141.149H54.632L55.6482 142.216Z" fill="#30F160"/>
<path d="M69.947 142.262H69.716C69.87 142.262 69.947 142.309 69.947 142.402C69.947 142.463 69.8084 142.618 69.5313 142.865C69.2849 143.082 69.0693 143.221 68.8845 143.283C68.1454 143.314 67.5141 143.376 66.9906 143.469C66.4979 143.561 66.0205 143.67 65.5586 143.793C65.1275 143.917 64.6809 144.025 64.219 144.118C63.7878 144.18 63.2335 144.211 62.556 144.211C62.2481 144.149 61.9863 144.118 61.7707 144.118C61.5551 144.118 61.355 144.118 61.1702 144.118C60.9546 144.118 60.7391 144.134 60.5235 144.164C60.3387 144.164 60.1539 144.164 59.9692 144.164C59.6304 144.164 59.3532 144.149 59.1377 144.118C58.9221 144.087 58.7219 144.056 58.5372 144.025C58.3524 143.963 58.1522 143.871 57.9366 143.747C57.7211 143.592 57.4285 143.407 57.059 143.19H56.2275C56.1967 143.19 56.1505 143.113 56.0889 142.958C56.0581 142.773 56.0119 142.68 55.9503 142.68L55.6731 142.448C55.6731 142.448 55.6116 142.371 55.4884 142.216C55.396 142.061 55.2728 141.922 55.1188 141.798C54.7493 141.242 54.5337 140.747 54.4721 140.314C54.4413 139.85 54.4259 139.386 54.4259 138.922C54.4567 138.675 54.4875 138.427 54.5183 138.18C54.5799 137.932 54.6877 137.685 54.8417 137.437C55.1188 136.881 55.396 136.401 55.6731 135.999C55.9503 135.597 56.2121 135.226 56.4584 134.886C56.7048 134.545 56.982 134.236 57.2899 133.958C57.5979 133.679 57.9366 133.386 58.3062 133.076C58.9837 132.674 59.7536 132.411 60.6159 132.288C61.509 132.164 62.3404 131.963 63.1103 131.685C63.4491 131.685 63.757 131.746 64.0342 131.87C64.3114 131.994 64.6963 132.056 65.1891 132.056C65.2506 132.148 65.343 132.226 65.4662 132.288C65.651 132.442 65.9128 132.52 66.2515 132.52C66.2823 132.52 66.3131 132.566 66.3439 132.659C66.3747 132.752 66.4209 132.844 66.4825 132.937C66.5749 133.03 66.6826 133.123 66.8058 133.216C66.9598 133.308 67.1446 133.355 67.3602 133.355C67.3602 133.417 67.4217 133.587 67.5449 133.865C67.6989 134.143 67.8529 134.484 68.0069 134.886C68.1608 135.257 68.2994 135.674 68.4226 136.138C68.5766 136.571 68.6844 137.004 68.746 137.437C68.5612 137.654 68.3918 137.809 68.2378 137.901C68.0839 137.963 67.9453 138.149 67.8221 138.458C67.5449 138.489 67.2678 138.566 66.9906 138.69C66.7134 138.783 66.3439 138.907 65.882 139.061C65.42 139.185 64.8349 139.293 64.1266 139.386C63.4183 139.479 62.5252 139.525 61.4474 139.525C61.4166 139.525 61.4012 139.448 61.4012 139.293C61.4012 139.108 61.3858 138.922 61.355 138.736C61.3242 138.52 61.278 138.319 61.2164 138.133C61.1548 137.948 61.047 137.824 60.893 137.762C60.9546 137.762 61.1702 137.731 61.5398 137.669C61.9401 137.607 62.4482 137.484 63.0641 137.298C63.2181 137.267 63.4029 137.252 63.6185 137.252C63.834 137.252 64.0496 137.236 64.2652 137.205C64.4808 137.174 64.6655 137.113 64.8195 137.02C64.9735 136.927 65.0505 136.772 65.0505 136.556C65.0505 136.401 65.0351 136.247 65.0043 136.092C65.0043 135.906 64.9427 135.736 64.8195 135.582C64.6963 135.427 64.5269 135.303 64.3114 135.21C64.1266 135.087 63.8494 135.025 63.4799 135.025C62.864 135.025 62.2481 135.133 61.6321 135.35C61.0162 135.535 60.5851 135.705 60.3387 135.86C60.0616 136.293 59.8768 136.881 59.7844 137.623C59.692 138.334 59.6458 138.922 59.6458 139.386C59.6458 139.788 59.7844 140.144 60.0616 140.453C60.3695 140.762 60.5235 140.979 60.5235 141.102C60.5235 141.257 60.6159 141.365 60.8006 141.427C61.0162 141.489 61.2934 141.582 61.6321 141.706C61.6937 141.706 61.7245 141.706 61.7245 141.706C61.7553 141.675 61.7861 141.659 61.8169 141.659C61.8477 141.659 61.8785 141.644 61.9093 141.613C62.0325 141.675 62.0787 141.706 62.0479 141.706C62.0171 141.706 62.0017 141.706 62.0017 141.706C62.0017 141.706 62.0787 141.737 62.2327 141.798C62.4174 141.829 62.8024 141.891 63.3875 141.984C63.7263 141.984 64.0188 141.984 64.2652 141.984C64.5115 141.953 64.7579 141.938 65.0043 141.938C65.2506 141.907 65.5124 141.891 65.7896 141.891C66.0667 141.891 66.3901 141.876 66.7596 141.845H66.9906C67.3294 141.845 67.6065 141.814 67.8221 141.752C68.0685 141.659 68.2686 141.582 68.4226 141.52C68.6074 141.427 68.7768 141.35 68.9307 141.288C69.0847 141.195 69.2541 141.149 69.4389 141.149C69.5005 141.334 69.5775 141.505 69.6698 141.659C69.7622 141.783 69.8084 141.922 69.8084 142.077L69.947 142.262Z" fill="#30F160"/>
<path d="M69.5951 127.695C69.7491 127.231 69.9801 126.875 70.288 126.628C70.596 126.349 70.9809 126.117 71.4429 125.932C71.9048 125.715 72.4745 125.514 73.1521 125.329C73.8296 125.143 74.5841 124.911 75.4155 124.633C75.4463 124.54 75.6157 124.493 75.9237 124.493C76.2624 124.493 76.6166 124.493 76.9861 124.493C77.3865 124.493 77.7406 124.478 78.0486 124.447C78.3873 124.385 78.5721 124.277 78.6029 124.122C78.8801 124.184 79.111 124.231 79.2958 124.262C79.4806 124.292 79.65 124.308 79.8039 124.308C79.9887 124.308 80.1735 124.308 80.3583 124.308C80.5738 124.308 80.8356 124.308 81.1436 124.308H81.8827C81.9443 124.37 82.0058 124.447 82.0674 124.54C82.129 124.602 82.1906 124.664 82.2522 124.725C82.3754 124.725 82.4832 124.865 82.5756 125.143C82.668 125.39 82.7757 125.684 82.8989 126.024C83.0221 126.365 83.1607 126.674 83.3147 126.952C83.4686 127.231 83.6688 127.37 83.9152 127.37H84.0076C84.0384 127.432 84.0538 127.633 84.0538 127.973C84.0846 128.282 84.1154 128.623 84.1462 128.994C84.2077 129.334 84.2693 129.659 84.3309 129.968C84.3925 130.277 84.4695 130.463 84.5619 130.525C84.5927 131.36 84.6389 131.963 84.7005 132.334C84.7929 132.705 84.8699 132.999 84.9314 133.216C85.0238 133.401 85.1008 133.571 85.1624 133.726C85.2548 133.85 85.3164 134.035 85.3472 134.283C85.3472 134.283 85.3472 134.406 85.3472 134.654C85.378 134.87 85.4088 135.118 85.4396 135.396C85.4704 135.643 85.5166 135.891 85.5782 136.138C85.6398 136.386 85.7167 136.509 85.8091 136.509C85.7783 136.509 85.7475 136.525 85.7167 136.556H85.5782C85.609 137.267 85.6244 137.901 85.6244 138.458C85.6551 139.015 85.6705 139.556 85.6705 140.082C85.7013 140.577 85.7321 141.102 85.7629 141.659C85.8245 142.216 85.8707 142.85 85.9015 143.561C85.7783 143.809 85.6705 144.01 85.5782 144.164C85.4858 144.288 85.4242 144.427 85.3934 144.582H84.7467C84.5003 144.458 84.3309 144.319 84.2385 144.164C83.8382 144.164 83.484 144.195 83.1761 144.257C82.8681 144.288 82.591 144.335 82.3446 144.396C82.129 144.458 81.9135 144.505 81.6979 144.536C81.4823 144.567 81.2514 144.582 81.005 144.582C80.697 144.582 80.3275 144.474 79.8963 144.257C79.4652 144.01 79.0494 143.886 78.6491 143.886C78.2796 143.886 77.987 143.933 77.7714 144.025C77.5866 144.087 77.4481 144.18 77.3557 144.304C77.2941 144.396 77.2325 144.474 77.1709 144.536C77.1401 144.628 77.0939 144.675 77.0323 144.675H74.4455C74.0451 144.675 73.6448 144.659 73.2444 144.628C72.8441 144.628 72.413 144.628 71.951 144.628C71.5507 144.628 71.0887 144.52 70.5652 144.304C70.0417 144.056 69.5335 143.747 69.0408 143.376C68.5481 142.974 68.1323 142.541 67.7936 142.077C67.4548 141.582 67.2855 141.087 67.2855 140.592C67.2855 139.046 67.6396 137.747 68.3479 136.695C69.087 135.643 70.1957 134.747 71.6739 134.004C72.2898 133.85 72.7825 133.695 73.1521 133.54C73.5216 133.386 73.845 133.246 74.1221 133.123C74.4301 132.968 74.7226 132.86 74.9998 132.798C75.277 132.705 75.6157 132.659 76.0161 132.659L77.4019 131.87C77.679 131.87 77.9254 131.87 78.141 131.87C78.3565 131.839 78.5721 131.808 78.7877 131.777L80.1273 131.685V131.406C80.1273 131.128 80.1427 130.834 80.1735 130.525C80.2043 130.184 80.2967 129.829 80.4507 129.458C80.4507 129.272 80.3891 129.148 80.2659 129.086C80.1427 128.994 80.0503 128.901 79.9887 128.808C79.8347 128.746 79.727 128.669 79.6654 128.576C79.6346 128.452 79.6038 128.329 79.573 128.205C79.5422 128.081 79.4652 127.973 79.342 127.88C79.2496 127.787 79.0802 127.741 78.8339 127.741C78.3719 127.741 77.7714 127.818 77.0323 127.973C76.324 128.128 75.5849 128.313 74.815 128.53C74.0759 128.746 73.383 128.963 72.7363 129.179C72.1204 129.365 71.6585 129.489 71.3505 129.55C71.2581 129.55 71.1503 129.458 71.0271 129.272C70.904 129.086 70.7654 128.87 70.6114 128.623C70.4882 128.375 70.3342 128.159 70.1495 127.973C69.9955 127.787 69.8107 127.695 69.5951 127.695ZM79.6192 135.489C79.342 135.427 79.0341 135.35 78.6953 135.257C78.3873 135.164 78.0794 135.071 77.7714 134.978H77.5866C77.3403 134.978 77.0785 135.009 76.8014 135.071C76.555 135.133 76.2778 135.21 75.9699 135.303C75.354 135.458 74.7688 135.597 74.2145 135.721C73.6602 135.845 73.1675 136.046 72.7363 136.324C72.336 136.571 72.0126 136.943 71.7662 137.437C71.5507 137.932 71.4429 138.613 71.4429 139.479C71.4429 139.912 71.5045 140.236 71.6277 140.453C71.7816 140.669 71.9664 140.963 72.182 141.334L75.4155 141.149C75.9083 141.118 76.4164 141.087 76.9399 141.056C77.4635 141.025 78.0332 140.979 78.6491 140.917H79.2958V140.546C79.2958 140.298 79.3112 139.912 79.342 139.386C79.3728 138.86 79.4652 138.35 79.6192 137.855V135.489Z" fill="#30F160"/>
<path d="M100.281 129.179C99.8804 129.519 99.4955 129.829 99.1259 130.107C98.7872 130.385 98.4484 130.648 98.1096 130.896L95.9847 132.52C95.646 132.767 95.3534 133.03 95.1071 133.308C94.8915 133.556 94.6913 133.788 94.5065 134.004C94.3526 134.221 94.1986 134.437 94.0446 134.654C93.9214 134.87 93.752 135.056 93.5365 135.21L93.7674 137.669L93.5365 139.154V140.082L92.7512 140.546L87.6699 140.963L87.5775 139.757L87.8084 139.247V127.37L88.5475 126.535H91.2268L92.474 129.226V132.427L93.4441 131.499L94.8299 129.086L97.9249 126.581L98.5254 126.396L100.281 129.179Z" fill="#30F160"/>
<path d="M113.643 128.808L115.353 132.056L115.168 133.123V138.69L114.706 139.247H109.902L109.301 138.736L110.04 133.355L108.978 131.824H108.423L107.592 132.288L104.636 132.612V134.468L104.728 134.561L105.005 139.015L102.788 139.571L102.095 139.154H101.356L100.155 139.618L99.5081 138.087V128.808L100.34 127.602H103.573L105.005 130.2L105.975 129.782L107.038 129.318L109.717 128.205H112.904L113.643 128.808Z" fill="#30F160"/>
<path d="M123.508 126.024L123.046 129.504L122.399 129.968L120.228 129.55L117.456 130.014L117.318 129.458V125.05L118.426 124.679L119.904 125.004L121.937 125.375L123.508 126.024ZM123.831 141.474L123.554 143.237L123.785 144.35L122.907 144.768H119.35L118.796 144.953H117.964L117.502 144.443L118.472 133.216L119.258 132.844L121.105 132.984L121.475 132.798L122.445 132.844L122.999 133.447V136.649L123.323 137.809V139.989L123.046 140.824L123.831 141.474Z" fill="#30F160"/>
<path d="M140.766 128.808L142.475 132.056L142.29 133.123V138.69L141.828 139.247H137.024L136.424 138.736L137.163 133.355L136.1 131.824H135.546L134.715 132.288L131.758 132.612V134.468L131.851 134.561L132.128 139.015L129.91 139.571L129.217 139.154H128.478L127.277 139.618L126.631 138.087V128.808L127.462 127.602H130.696L132.128 130.2L133.098 129.782L134.16 129.318L136.839 128.205H140.027L140.766 128.808Z" fill="#30F160"/>
<path d="M158.483 136.602C158.36 136.788 158.283 137.051 158.252 137.391C158.221 137.731 158.206 138.149 158.206 138.644C158.206 139.293 158.221 139.989 158.252 140.731C158.283 141.474 158.298 142.17 158.298 142.819C158.298 144.242 158.083 145.417 157.652 146.345C157.251 147.304 156.82 148.108 156.358 148.757C155.835 149.345 155.403 149.794 155.065 150.103C154.726 150.443 154.403 150.691 154.095 150.845C153.817 151 153.54 151.108 153.263 151.17C153.017 151.232 152.724 151.309 152.385 151.402C151.739 151.557 150.953 151.758 150.03 152.005C149.106 152.252 148.105 152.376 147.027 152.376C146.657 152.376 146.396 152.299 146.242 152.144C146.088 152.021 146.011 151.897 146.011 151.773V151.727C146.011 151.572 145.949 151.495 145.826 151.495C145.98 151.216 146.026 151 145.965 150.845C145.934 150.691 145.934 150.551 145.965 150.428C145.995 150.335 146.149 150.227 146.426 150.103C146.734 149.979 147.335 149.794 148.228 149.546C148.906 149.392 149.598 149.206 150.307 148.989C151.015 148.773 151.492 148.618 151.739 148.526C152.416 148.185 152.894 147.721 153.171 147.134C153.479 146.577 153.679 145.974 153.771 145.324C153.864 144.706 153.91 144.087 153.91 143.469C153.941 142.819 154.018 142.278 154.141 141.845C154.018 141.876 153.725 141.922 153.263 141.984C152.801 142.046 152.262 142.123 151.646 142.216C151.061 142.309 150.476 142.386 149.891 142.448C149.337 142.479 148.906 142.494 148.598 142.494C148.228 142.494 147.92 142.479 147.674 142.448C147.458 142.386 147.227 142.293 146.981 142.17C146.765 142.046 146.503 141.922 146.195 141.798C145.918 141.675 145.533 141.535 145.041 141.381L143.886 140.035C143.701 139.479 143.547 138.907 143.424 138.319C143.301 137.7 143.239 137.097 143.239 136.509C143.239 135.18 143.547 134.004 144.163 132.984C144.779 131.963 145.533 131.112 146.426 130.432C147.32 129.721 148.259 129.179 149.244 128.808C150.261 128.437 151.138 128.251 151.877 128.251C152.308 128.313 152.663 128.406 152.94 128.53C153.248 128.623 153.494 128.731 153.679 128.854C153.894 128.978 154.064 129.086 154.187 129.179C154.341 129.241 154.464 129.272 154.557 129.272C154.772 129.272 154.957 129.226 155.111 129.133C155.296 129.04 155.465 128.932 155.619 128.808C155.773 128.653 155.896 128.53 155.989 128.437C156.081 128.313 156.158 128.251 156.22 128.251C156.25 128.313 156.343 128.36 156.497 128.391C156.651 128.421 156.82 128.437 157.005 128.437C157.467 128.437 157.729 128.607 157.79 128.947C157.852 129.288 157.913 129.736 157.975 130.293C158.067 130.88 158.144 131.36 158.206 131.731C158.267 132.071 158.329 132.38 158.391 132.659C158.483 132.906 158.545 133.154 158.575 133.401C158.606 133.649 158.622 133.927 158.622 134.236C158.622 134.607 158.591 134.994 158.529 135.396C158.498 135.798 158.483 136.2 158.483 136.602ZM151.785 131.638C151.477 131.638 151.215 131.715 151 131.87C150.815 131.994 150.63 132.148 150.445 132.334C149.46 133.478 148.844 134.545 148.598 135.535C148.382 136.494 148.274 137.391 148.274 138.226L149.383 139.432H149.937C150.307 139.432 150.661 139.448 151 139.479C151.369 139.479 151.723 139.479 152.062 139.479C152.37 139.479 152.724 139.432 153.125 139.34C153.556 139.216 154.002 139.015 154.464 138.736L154.741 134.375C154.587 133.757 154.433 133.277 154.279 132.937C154.156 132.566 153.987 132.288 153.771 132.102C153.556 131.916 153.279 131.808 152.94 131.777C152.632 131.715 152.247 131.669 151.785 131.638Z" fill="#30F160"/>
</svg>
